<svg xmlns="http://www.w3.org/2000/svg" width="45" height="48" viewBox="0 0 45 48">
    <g fill="#000" fill-rule="evenodd">
        <path d="M39.252 24c2.578-2.68 4.342-5.334 4.964-7.662.43-1.607.307-3.003-.36-4.159-1.133-1.959-3.7-2.995-7.422-2.995-1.747 0-3.666.233-5.68.667C28.904 4.052 25.924.358 22.5.358c-3.424 0-6.404 3.694-8.25 9.49-2.015-.434-3.932-.666-5.681-.666-3.725 0-6.292 1.036-7.423 2.994C.48 13.33.36 14.73.787 16.335 1.41 18.666 3.17 21.319 5.747 24c-2.577 2.68-4.34 5.337-4.963 7.662-.43 1.607-.307 3.006.36 4.159 1.133 1.959 3.7 2.995 7.422 2.995 1.747 0 3.666-.233 5.68-.664 1.85 5.796 4.83 9.49 8.254 9.49 3.424 0 6.404-3.694 8.25-9.49 2.015.434 3.935.666 5.681.666 3.723 0 6.29-1.036 7.423-2.994.666-1.153.786-2.553.359-4.159-.622-2.328-2.383-4.984-4.96-7.665zm-2.82-13.744c3.272 0 5.58.874 6.495 2.46.519.899.602 2.02.25 3.342-.568 2.133-2.24 4.629-4.686 7.173-1.727-1.694-3.767-3.387-6.055-5.005-.279-2.666-.751-5.143-1.379-7.348 1.909-.406 3.722-.622 5.374-.622zm-9.348 21.669a50.63 50.63 0 0 1-4.584 2.34 50.63 50.63 0 0 1-4.584-2.34 60.043 60.043 0 0 1-4.325-2.745 52.09 52.09 0 0 1-.257-5.18c0-1.777.092-3.512.257-5.18a59.42 59.42 0 0 1 4.325-2.745 50.962 50.962 0 0 1 4.581-2.34 50.537 50.537 0 0 1 4.584 2.34c1.51.87 2.958 1.793 4.323 2.745.167 1.671.256 3.405.256 5.18 0 1.777-.092 3.509-.256 5.18a60.277 60.277 0 0 1-4.32 2.745zm4.163-1.335a42.226 42.226 0 0 1-1.278 6.283 43.188 43.188 0 0 1-6.144-2.037 50.813 50.813 0 0 0 3.79-1.982 60.858 60.858 0 0 0 3.632-2.264zm-10.072 4.246a43.188 43.188 0 0 1-6.144 2.037 42.266 42.266 0 0 1-1.278-6.286 62.39 62.39 0 0 0 3.633 2.267 50.26 50.26 0 0 0 3.789 1.982zm-8.742-6.487C10.505 26.933 8.764 25.464 7.27 24c1.495-1.467 3.237-2.936 5.165-4.352A56.597 56.597 0 0 0 12.269 24a55.084 55.084 0 0 0 .164 4.349zm1.32-10.94c.29-2.258.728-4.374 1.278-6.282 1.989.49 4.062 1.175 6.144 2.037a50.813 50.813 0 0 0-3.79 1.982 60.858 60.858 0 0 0-3.632 2.264zm10.075-4.245a43.523 43.523 0 0 1 6.144-2.037c.55 1.908.988 4.024 1.278 6.283a63.283 63.283 0 0 0-3.63-2.267 51.976 51.976 0 0 0-3.792-1.979zm8.74 6.484c1.927 1.416 3.668 2.885 5.163 4.352-1.495 1.467-3.236 2.936-5.164 4.352a56.578 56.578 0 0 0 0-8.704zM22.5 1.433c2.86 0 5.46 3.428 7.157 8.667-2.32.573-4.74 1.407-7.157 2.462-2.416-1.055-4.838-1.889-7.157-2.462 1.696-5.24 4.297-8.667 7.157-8.667zM2.07 12.716c.919-1.586 3.223-2.46 6.496-2.46 1.652 0 3.465.213 5.371.62-.628 2.207-1.1 4.681-1.378 7.35-2.288 1.618-4.33 3.311-6.055 5.005-2.447-2.544-4.118-5.038-4.688-7.173-.348-1.318-.265-2.443.254-3.342zm6.499 25.028c-3.273 0-5.58-.874-6.496-2.46-.519-.899-.602-2.024-.25-3.342.568-2.133 2.24-4.629 4.686-7.173 1.725 1.694 3.767 3.387 6.055 5.005.279 2.666.751 5.143 1.379 7.35-1.909.404-3.722.62-5.374.62zM22.5 46.567c-2.86 0-5.46-3.428-7.157-8.667 2.32-.573 4.74-1.407 7.157-2.462 2.416 1.055 4.838 1.889 7.157 2.462-1.696 5.24-4.297 8.667-7.157 8.667zm20.43-11.283c-.919 1.586-3.223 2.46-6.496 2.46-1.652 0-3.465-.213-5.374-.62.628-2.207 1.1-4.684 1.379-7.35 2.287-1.618 4.33-3.311 6.055-5.005 2.446 2.542 4.117 5.038 4.687 7.17.351 1.321.268 2.446-.251 3.345z"/>
        <path d="M22.5 27.518A3.523 3.523 0 0 1 18.979 24c0-1.94 1.579-3.518 3.521-3.518A3.521 3.521 0 0 1 26.019 24a3.521 3.521 0 0 1-3.519 3.518zm0-5.961A2.45 2.45 0 0 0 20.05 24a2.448 2.448 0 0 0 4.897 0 2.446 2.446 0 0 0-2.447-2.443z"/>
    </g>
</svg>
